C:\Users\r0593348\3dpredictsim\Results\Batchsim_tmt_linear_v2\Pog_s1_tmt_aCst_d02_k500_ig24_act_GRF.mot
nRows=17
nColumns=19

name C:\Users\r0593348\3dpredictsim\Results\Batchsim_tmt_linear_v2\Pog_s1_tmt_aCst_d02_k500_ig24_act_GRF.mot
datacolumns 19
datarows 17
range 0.0000000000 0.2080520198
endheader
time 	ground_force_vx	ground_force_vy	ground_force_vz	ground_force_px	ground_force_py	ground_force_pz	1_ground_force_vx	1_ground_force_vy	1_ground_force_vz	1_ground_force_px	1_ground_force_py	1_ground_force_pz	ground_torque_x	ground_torque_y	ground_torque_z	1_ground_torque_x	1_ground_torque_y	1_ground_torque_z
        0.0000000000	      -90.3295867401	       73.8232884941	       13.1389111623	        0.3971845182	        0.0000000000	        0.0298769870	       31.7149674190	      247.4247311708	      -10.8652947743	       -0.3730626758	        0.0000000000	       -0.0484000963	        0.0000000000	        0.0000000000	        0.0000000000	        0.0000000000	        0.0000000000	        0.0000000000	
        0.0130032512	     -182.2109171016	      174.2535161730	       24.2758774674	        0.3827479595	        0.0000000000	        0.0353100096	       39.7032482414	      214.5908862848	       -7.5458489202	       -0.3724284225	        0.0000000000	       -0.0482769003	        0.0000000000	        0.0000000000	        0.0000000000	        0.0000000000	        0.0000000000	        0.0000000000	
        0.0260065025	     -203.6085697103	      476.1487889926	        1.6679051325	        0.3361786424	        0.0000000000	        0.0487956893	       38.1750666939	      175.7682909412	      -15.2328873325	       -0.3720623942	        0.0000000000	       -0.0487993287	        0.0000000000	        0.0000000000	        0.0000000000	        0.0000000000	        0.0000000000	        0.0000000000	
        0.0390097537	     -220.5700048266	      687.0490168323	       -8.8906173849	        0.3187570344	        0.0000000000	        0.0532194424	       29.6118477257	      125.0193533128	      -18.9915673572	       -0.3717778130	        0.0000000000	       -0.0492598458	        0.0000000000	        0.0000000000	        0.0000000000	        0.0000000000	        0.0000000000	        0.0000000000	
        0.0520130049	     -211.2439787813	      813.4865494183	       -8.2332286218	        0.3103866407	        0.0000000000	        0.0551681446	       12.4322160460	       63.0447761058	      -13.4138045334	       -0.3719354100	        0.0000000000	       -0.0494007133	        0.0000000000	        0.0000000000	        0.0000000000	        0.0000000000	        0.0000000000	        0.0000000000	
        0.0650162562	     -209.9290269624	      911.7922631126	      -11.6263791755	        0.3051469883	        0.0000000000	        0.0564108548	       -8.8270632650	       12.1371490311	       -2.9050565205	       -0.3780611940	        0.0000000000	       -0.0489257243	        0.0000000000	        0.0000000000	        0.0000000000	        0.0000000000	        0.0000000000	        0.0000000000	
        0.0780195074	     -199.6967084852	      919.2200833143	      -11.3484918705	        0.3022593444	        0.0000000000	        0.0570368831	      -10.5852140946	        8.4857272411	        0.6904470896	        0.0000000000	        0.0000000000	        0.0000000000	        0.0000000000	        0.0000000000	        0.0000000000	        0.0000000000	        0.0000000000	        0.0000000000	
        0.0910227586	     -178.2486456828	      877.7642177183	      -11.1059727834	        0.3005467149	        0.0000000000	        0.0574004442	      -14.7070270836	       10.0842788945	        0.8166057050	       -0.3529991101	        0.0000000000	       -0.0486218101	        0.0000000000	        0.0000000000	        0.0000000000	        0.0000000000	        0.0000000000	        0.0000000000	
        0.1040260099	     -157.3217802429	      816.2401860827	      -11.8077738030	        0.3005264633	        0.0000000000	        0.0577273213	      -15.3969986522	        9.2161365706	        0.9358400280	        0.0000000000	        0.0000000000	        0.0000000000	        0.0000000000	        0.0000000000	        0.0000000000	        0.0000000000	        0.0000000000	        0.0000000000	
        0.1170292611	     -137.9875763505	      762.9670801449	      -12.3293108305	        0.3015443714	        0.0000000000	        0.0580891164	      -12.7960836614	        6.8689669349	        0.8329777585	        0.0000000000	        0.0000000000	        0.0000000000	        0.0000000000	        0.0000000000	        0.0000000000	        0.0000000000	        0.0000000000	        0.0000000000	
        0.1300325123	     -121.7631416049	      718.3310024564	      -12.5833664133	        0.3029607876	        0.0000000000	        0.0584834918	       -9.3998343436	        4.6247909556	        0.6438312069	        0.0000000000	        0.0000000000	        0.0000000000	        0.0000000000	        0.0000000000	        0.0000000000	        0.0000000000	        0.0000000000	        0.0000000000	
        0.1430357636	     -105.8493721872	      684.0590001428	      -13.1960969720	        0.3046754754	        0.0000000000	        0.0588800828	       -7.1730937405	        3.3175051443	        0.4854224630	        0.0000000000	        0.0000000000	        0.0000000000	        0.0000000000	        0.0000000000	        0.0000000000	        0.0000000000	        0.0000000000	        0.0000000000	
        0.1560390148	      -92.8127485860	      657.9207004028	      -14.3118134029	        0.3067217905	        0.0000000000	        0.0591885438	       -5.6083527573	        2.5055949527	        0.3129046619	        0.0000000000	        0.0000000000	        0.0000000000	        0.0000000000	        0.0000000000	        0.0000000000	        0.0000000000	        0.0000000000	        0.0000000000	
        0.1690422660	      -82.5839450463	      637.1196980480	      -15.6009496985	        0.3089379619	        0.0000000000	        0.0594064732	       -4.3665814500	        1.8911445792	        0.2016980994	        0.0000000000	        0.0000000000	        0.0000000000	        0.0000000000	        0.0000000000	        0.0000000000	        0.0000000000	        0.0000000000	        0.0000000000	
        0.1820455173	      -74.3212171363	      618.4660880831	      -17.4204974219	        0.3111442230	        0.0000000000	        0.0595358038	       -3.2776515760	        1.3835879107	        0.1211094764	        0.0000000000	        0.0000000000	        0.0000000000	        0.0000000000	        0.0000000000	        0.0000000000	        0.0000000000	        0.0000000000	        0.0000000000	
        0.1950487685	      -67.4001044958	      601.4177069974	      -18.9993311092	        0.3131551376	        0.0000000000	        0.0596226586	       -2.4056461954	        0.9949024501	        0.0679799767	        0.0000000000	        0.0000000000	        0.0000000000	        0.0000000000	        0.0000000000	        0.0000000000	        0.0000000000	        0.0000000000	        0.0000000000	
        0.2080520198	      -61.2734015502	      585.4945373426	      -20.2591306594	        0.3148276203	        0.0000000000	        0.0596886712	       -1.8178107864	        0.7400535006	        0.0361078436	        0.0000000000	        0.0000000000	        0.0000000000	        0.0000000000	        0.0000000000	        0.0000000000	        0.0000000000	        0.0000000000	        0.0000000000	
